<?xml version="1.0" encoding="UTF-8" standalone="no"?>
<!-- Created with Inkscape (http://www.inkscape.org/) -->

<svg
   xmlns:dc="http://purl.org/dc/elements/1.1/"
   xmlns:cc="http://creativecommons.org/ns#"
   xmlns:rdf="http://www.w3.org/1999/02/22-rdf-syntax-ns#"
   xmlns:svg="http://www.w3.org/2000/svg"
   xmlns="http://www.w3.org/2000/svg"
   xmlns:sodipodi="http://sodipodi.sourceforge.net/DTD/sodipodi-0.dtd"
   xmlns:inkscape="http://www.inkscape.org/namespaces/inkscape"
   width="307"
   height="75"
   viewBox="0 0 81.227081 19.843751"
   version="1.1"
   id="svg18"
   inkscape:version="0.92.4 (5da689c313, 2019-01-14)"
   sodipodi:docname="footer-logo.svg"
   inkscape:export-filename="C:\Users\danie\Documents\Tutorials\Curso Programador\Course Project\CourseProjectRecipes\WebPage\img\footer-logo.png"
   inkscape:export-xdpi="96"
   inkscape:export-ydpi="96">
  <title
     id="title34">footer-logo</title>
  <defs
     id="defs12" />
  <sodipodi:namedview
     id="base"
     pagecolor="#ffffff"
     bordercolor="#666666"
     borderopacity="1.0"
     inkscape:pageopacity="0.0"
     inkscape:pageshadow="2"
     inkscape:zoom="1.979899"
     inkscape:cx="47.22398"
     inkscape:cy="82.467404"
     inkscape:document-units="mm"
     inkscape:current-layer="layer1"
     showgrid="false"
     units="px"
     inkscape:window-width="1920"
     inkscape:window-height="1017"
     inkscape:window-x="-8"
     inkscape:window-y="-8"
     inkscape:window-maximized="1" />
  <metadata
     id="metadata15">
    <rdf:RDF>
      <cc:Work
         rdf:about="">
        <dc:format>image/svg+xml</dc:format>
        <dc:type
           rdf:resource="http://purl.org/dc/dcmitype/StillImage" />
        <dc:title>footer-logo</dc:title>
      </cc:Work>
    </rdf:RDF>
  </metadata>
  <g
     inkscape:label="Layer 1"
     inkscape:groupmode="layer"
     id="layer1"
     transform="translate(0,-277.15623)">
    <text
       xml:space="preserve"
       style="font-style:normal;font-weight:normal;font-size:7.60515308px;line-height:1.25;font-family:sans-serif;letter-spacing:0px;word-spacing:0px;fill:#000000;fill-opacity:1;stroke:none;stroke-width:0.1901288"
       x="48.731247"
       y="287.0741"
       id="text3715"><tspan
         sodipodi:role="line"
         id="tspan3713"
         x="48.731247"
         y="287.0741"
         style="font-style:normal;font-variant:normal;font-weight:normal;font-stretch:normal;font-size:9.12618256px;font-family:'Berlin Sans FB Demi';-inkscape-font-specification:'Berlin Sans FB Demi';text-align:center;text-anchor:middle;stroke-width:0.1901288">DBraga Recipes</tspan></text>
    <text
       xml:space="preserve"
       style="font-style:normal;font-weight:normal;font-size:7.60515308px;line-height:1.25;font-family:sans-serif;letter-spacing:0px;word-spacing:0px;fill:#000000;fill-opacity:1;stroke:none;stroke-width:0.1901288"
       x="80.343437"
       y="291.89523"
       id="text3719"><tspan
         sodipodi:role="line"
         id="tspan3717"
         x="80.343437"
         y="291.89523"
         style="font-style:normal;font-variant:normal;font-weight:normal;font-stretch:normal;font-size:3.54907131px;font-family:Arial;-inkscape-font-specification:Arial;text-align:end;text-anchor:end;stroke-width:0.1901288">by Daniel Braga</tspan></text>
    <path
       style="fill:#000000;stroke-width:0.014766"
       d="m 3.6077027,293.32405 c -0.2262079,-0.0568 -0.427673,-0.20793 -0.5425585,-0.40718 -0.1122906,-0.19477 -0.1383195,-0.47065 -0.064779,-0.68663 0.067098,-0.19705 0.1406274,-0.28367 0.5778119,-0.68054 0.097452,-0.0884 0.180511,-0.16453 0.1845716,-0.16901 0.00937,-0.0103 0.8145459,-0.75209 1.3279676,-1.22339 0.2157534,-0.19804 0.4387856,-0.40424 0.4956373,-0.45822 0.056847,-0.054 0.1432271,-0.13386 0.1919582,-0.1775 0.048709,-0.0437 0.1749756,-0.16026 0.280553,-0.25918 0.1055777,-0.099 0.2318276,-0.21532 0.2805533,-0.2587 0.048709,-0.0434 0.091922,-0.0827 0.095982,-0.0873 0.00416,-0.005 0.087071,-0.0815 0.184472,-0.17091 0.2975094,-0.27287 0.5185897,-0.47757 0.6401569,-0.5927 l 0.095726,-0.0907 -0.4314197,-0.47044 C 6.687052,287.33291 6.483467,287.11471 6.471915,287.10676 c -0.016112,-0.0111 -0.062971,0.0279 -0.2022556,0.16825 -0.1701929,0.17155 -0.2399003,0.22285 -0.3026063,0.22264 -0.081443,-2.5e-4 -0.1418928,-0.0363 -0.280328,-0.16742 -0.079566,-0.0753 -0.2187517,-0.20632 -0.3092975,-0.29112 -0.1807462,-0.16925 -1.0591346,-1.04793 -1.3054805,-1.30591 -0.2859737,-0.29947 -0.6968356,-0.74894 -0.8629218,-0.94401 -0.040598,-0.0478 -0.083796,-0.0975 -0.095977,-0.11062 -0.023807,-0.0256 -0.205353,-0.24456 -0.3298184,-0.39758 -0.041957,-0.0515 -0.093308,-0.1147 -0.1141525,-0.14029 -0.033745,-0.0414 -0.2183915,-0.28629 -0.3691158,-0.4895 -0.1565534,-0.21108 -0.4930426,-0.70897 -0.7035224,-1.04101 -0.097625,-0.154 -0.4029725,-0.67169 -0.4029725,-0.6832 0,-0.004 -0.029094,-0.0598 -0.064606,-0.12402 -0.16852855,-0.30467 -0.31259849,-0.66552 -0.35803421,-0.89677 -0.0390855,-0.19896 1.9873e-4,-0.34249 0.10585037,-0.38663 0.0682517,-0.0285 0.10755942,-0.0263 0.17673264,0.0101 0.036474,0.0191 1.1966541,1.1673 3.0489668,3.01749 2.10002,2.09761 3.1212786,3.10712 3.4307394,3.39122 0.2423427,0.2225 0.4601852,0.4205 0.4840893,0.44004 l 0.043477,0.0355 0.040128,-0.0367 c 0.2471359,-0.22627 1.0368601,-0.95319 1.1106427,-1.02229 0.052789,-0.0495 0.1757154,-0.16285 0.2731716,-0.25201 0.097453,-0.0892 0.2136454,-0.19547 0.2582011,-0.23625 0.044573,-0.0409 0.1375881,-0.12757 0.2067231,-0.19283 0.069152,-0.0653 0.1954815,-0.18258 0.2807575,-0.26066 0.08527,-0.078 0.193435,-0.17795 0.240356,-0.2219 l 0.08531,-0.0799 -0.07357,-0.1541 c -0.280024,-0.58654 -0.21194,-1.24101 0.174243,-1.6748 0.104333,-0.11719 0.645279,-0.61166 1.041854,-0.95235 0.02381,-0.0204 0.07695,-0.0679 0.118128,-0.10528 0.173464,-0.15781 1.52867,-1.33938 1.632416,-1.42325 0.03013,-0.0244 0.193685,-0.16072 0.363449,-0.30301 0.474029,-0.39732 0.657868,-0.53127 0.729098,-0.53127 0.114728,0 0.137347,0.10448 0.04913,0.22689 -0.178193,0.24725 -1.083657,1.20945 -2.271008,2.41335 -0.186789,0.18939 -0.410686,0.418 -0.497542,0.50802 l -0.157925,0.16367 0.02941,0.0576 c 0.03274,0.0641 0.0605,0.0811 0.101585,0.0618 0.01517,-0.006 0.102853,-0.0833 0.194832,-0.16918 0.09198,-0.0859 0.353289,-0.32542 0.580683,-0.53222 0.505558,-0.45977 0.566507,-0.51536 0.678954,-0.61931 0.08967,-0.0829 0.560535,-0.50278 0.685729,-0.61149 0.03721,-0.0323 0.134652,-0.11868 0.21658,-0.19196 0.08193,-0.0734 0.171632,-0.15268 0.199341,-0.17643 0.334009,-0.28638 0.599944,-0.49999 0.663247,-0.53271 0.06475,-0.0335 0.141343,-0.0286 0.168895,0.0107 0.01266,0.0181 0.02296,0.0469 0.02296,0.0641 0,0.0469 -0.09631,0.18551 -0.25996,0.37418 -0.08035,0.0927 -0.169361,0.19653 -0.197787,0.23082 -0.07375,0.089 -0.384326,0.42806 -0.877503,0.95798 -0.234931,0.25244 -0.519874,0.55864 -0.63321,0.68046 -0.113342,0.12182 -0.22014,0.23495 -0.237331,0.25141 -0.01722,0.0165 -0.08774,0.0897 -0.156773,0.16259 -0.06904,0.073 -0.231696,0.24414 -0.361482,0.38039 -0.129787,0.13624 -0.241831,0.25816 -0.248988,0.27096 -0.0147,0.0263 0.02182,0.0842 0.07544,0.11979 0.03097,0.0206 0.03924,0.0152 0.176901,-0.11665 0.07943,-0.0761 0.263895,-0.25119 0.409926,-0.38925 0.146032,-0.13806 0.335317,-0.3178 0.420632,-0.3994 0.08532,-0.0817 0.208282,-0.1978 0.273248,-0.25822 0.06497,-0.0604 0.174609,-0.16311 0.243641,-0.22818 0.172757,-0.16285 0.489615,-0.45664 0.605405,-0.56132 0.0528,-0.0478 0.0993,-0.0911 0.103365,-0.0963 0.0041,-0.005 0.07715,-0.0714 0.162423,-0.14719 0.08527,-0.0757 0.178299,-0.15905 0.206725,-0.18516 0.249803,-0.22953 0.540727,-0.47578 0.642056,-0.5435 0.133924,-0.0894 0.252399,-0.0137 0.193564,0.12381 -0.03259,0.0762 -0.323068,0.44008 -0.570561,0.71476 -0.03693,0.041 -0.08605,0.0978 -0.10912,0.12624 -0.02307,0.0284 -0.08664,0.10151 -0.141244,0.16242 -0.05462,0.0609 -0.164584,0.18384 -0.244367,0.27318 -0.07979,0.0893 -0.208597,0.23227 -0.286246,0.31763 -0.07764,0.0854 -0.191005,0.2113 -0.251912,0.27983 -0.167301,0.18826 -0.378136,0.41946 -0.837903,0.91884 -0.229467,0.24924 -0.41721,0.46319 -0.41721,0.47545 0,0.0123 0.0235,0.0403 0.05216,0.0621 0.04363,0.0333 0.05785,0.0372 0.08668,0.0241 0.01894,-0.009 0.25628,-0.23381 0.527375,-0.50036 0.738027,-0.72567 0.919658,-0.90216 1.511754,-1.46887 0.293518,-0.28093 0.796008,-0.74244 0.945959,-0.8688 0.08465,-0.0713 0.187083,-0.13327 0.220401,-0.13327 0.01857,0 0.04913,0.0125 0.06792,0.0275 0.0544,0.0441 0.04531,0.11104 -0.03029,0.22355 -0.06854,0.10198 -0.237901,0.32205 -0.324695,0.4219 -0.02883,0.0331 -0.09559,0.11236 -0.148381,0.17599 -0.0528,0.0636 -0.161159,0.19268 -0.240821,0.28672 -0.07966,0.094 -0.159395,0.1883 -0.177189,0.20943 -0.01779,0.0212 -0.109778,0.12745 -0.204411,0.23626 -0.09463,0.10881 -0.24746,0.28461 -0.339617,0.39067 -0.249726,0.28742 -0.650025,0.74182 -1.052914,1.19516 -0.108837,0.12248 -0.307331,0.34817 -0.369759,0.42043 -0.02439,0.0282 -0.0742,0.0818 -0.110748,0.11885 -0.03657,0.0371 -0.114408,0.11813 -0.173033,0.17989 -0.281271,0.29634 -0.57923,0.43225 -0.986095,0.44983 -0.299274,0.013 -0.538556,-0.0389 -0.822777,-0.17831 l -0.12877,-0.0633 -0.219785,0.23023 c -0.120881,0.12663 -0.485283,0.5193 -0.809785,0.87256 -0.3244975,0.35329 -0.7058665,0.76832 -0.8474859,0.92231 -0.1416224,0.154 -0.2904585,0.31593 -0.33074,0.35985 l -0.073249,0.0798 0.031398,0.0254 c 0.038239,0.0311 0.4179208,0.37918 0.8379392,0.76849 0.1709201,0.15842 0.4835297,0.44645 0.6946797,0.64005 0.211156,0.1936 0.413819,0.38016 0.450364,0.41456 0.06054,0.057 0.757105,0.69811 1.210813,1.11443 0.101517,0.0932 0.257667,0.23686 0.347005,0.31935 0.08933,0.0825 0.216795,0.19962 0.283243,0.26025 0.240653,0.21962 0.315168,0.3402 0.34827,0.56354 0.03243,0.21876 -0.04332,0.44586 -0.203301,0.6094 -0.232622,0.23784 -0.574181,0.29308 -0.877231,0.14189 -0.09003,-0.0449 -0.16887,-0.11835 -0.422808,-0.39378 -0.09711,-0.10533 -0.226396,-0.24491 -0.287306,-0.31017 -0.0609,-0.0653 -0.293471,-0.31776 -0.516812,-0.56115 -0.223336,-0.24338 -0.531906,-0.57891 -0.685718,-0.74562 -0.1538124,-0.16669 -0.3527927,-0.38283 -0.4421885,-0.48029 -0.089399,-0.0974 -0.1975616,-0.21374 -0.2403749,-0.25839 -0.042792,-0.0447 -0.089682,-0.0952 -0.1041549,-0.11246 -0.01449,-0.0171 -0.093294,-0.10355 -0.1751639,-0.19194 -0.4375045,-0.47244 -0.7488635,-0.80929 -0.8446251,-0.91378 l -0.1075194,-0.11731 -0.093147,0.0955 c -0.051225,0.0525 -0.1719515,0.18195 -0.2682629,0.28752 -0.096306,0.10558 -0.2459115,0.26837 -0.332449,0.36177 -0.086538,0.0934 -0.2887889,0.31267 -0.4494434,0.48728 -0.1606554,0.1746 -0.3262505,0.35401 -0.3679862,0.39868 -0.041754,0.0447 -0.2314969,0.25065 -0.4216875,0.45775 -0.2987292,0.32529 -0.5041555,0.54789 -0.7971133,0.86381 -0.037668,0.0406 -0.1139171,0.12367 -0.169471,0.18458 -0.055564,0.0609 -0.1353955,0.14729 -0.1774193,0.19195 -0.074937,0.0796 -0.4684777,0.50861 -0.6578938,0.7171 -0.1455604,0.16022 -0.3110506,0.26258 -0.4847437,0.29983 -0.1000528,0.0213 -0.2846293,0.0194 -0.3790675,-0.004 z m 0.4706226,-0.22676 c 0.1087378,-0.051 0.1882549,-0.12471 0.4741761,-0.43913 0.081095,-0.0891 0.1880239,-0.20532 0.237634,-0.25811 0.049602,-0.0528 0.2152625,-0.23219 0.3681221,-0.39867 0.2531788,-0.27576 0.3599175,-0.39189 0.6650037,-0.72354 0.056031,-0.0609 0.1286409,-0.14018 0.1613514,-0.17615 0.0327,-0.036 0.1066138,-0.11572 0.1642128,-0.17719 0.057602,-0.0614 0.1965838,-0.21147 0.3088483,-0.33328 0.1122591,-0.12183 0.2379584,-0.25803 0.2793283,-0.3027 0.041389,-0.0446 0.1349563,-0.14704 0.2079691,-0.2275 0.073012,-0.0804 0.1493543,-0.16358 0.16966,-0.18471 0.020296,-0.0211 0.1033584,-0.11122 0.1845763,-0.20017 0.081214,-0.0889 0.1640455,-0.17859 0.1840683,-0.19919 0.1373995,-0.14143 0.5763784,-0.627 0.5763784,-0.63756 0,-0.0102 -0.3655999,-0.41771 -0.5397381,-0.6016 l -0.033276,-0.0352 -0.1970706,0.18167 c -0.1083871,0.0999 -0.2236443,0.20655 -0.2561308,0.23695 -0.032483,0.0304 -0.1554127,0.1436 -0.2731702,0.25155 -0.1177624,0.10796 -0.2308378,0.21318 -0.251279,0.23383 -0.02046,0.0206 -0.1498673,0.14051 -0.2876062,0.2664 -0.1377446,0.12588 -0.2937798,0.26938 -0.3467492,0.31889 -0.052965,0.0495 -0.1930573,0.17909 -0.311302,0.28795 -0.1182486,0.10885 -0.3737141,0.34409 -0.5677028,0.52275 -0.1939893,0.17867 -0.3927651,0.3614 -0.4417163,0.40607 -0.2083921,0.19014 -0.3136296,0.28746 -0.3497676,0.32342 -0.021192,0.0211 -0.097447,0.0915 -0.169471,0.15648 -0.4084404,0.36843 -0.7314989,0.67658 -0.7728891,0.73726 -0.2476122,0.36291 -0.079524,0.84982 0.3457444,1.00153 0.056677,0.0201 0.1086327,0.0254 0.2216819,0.022 0.1304606,-0.003 0.1594837,-0.0101 0.2491342,-0.0521 z m 8.5252697,-0.18385 c 0.164659,-0.0808 0.259585,-0.19126 0.307389,-0.35757 0.03354,-0.11669 0.02193,-0.25842 -0.03076,-0.37589 -0.04767,-0.10619 -0.109507,-0.16761 -0.863258,-0.85725 -0.109637,-0.10027 -0.232584,-0.2129 -0.273212,-0.25022 -0.317485,-0.29159 -0.464413,-0.42699 -0.71092,-0.65517 -0.155512,-0.14395 -0.290065,-0.26172 -0.299012,-0.26172 -0.0089,0 -0.01627,-0.006 -0.01627,-0.0137 0,-0.008 -0.0089,-0.0226 -0.01993,-0.0332 -0.01554,-0.0152 -0.229939,-0.21257 -0.325968,-0.30006 -0.0089,-0.008 -0.09248,-0.0845 -0.185681,-0.16981 -0.0932,-0.0853 -0.176748,-0.16169 -0.185644,-0.16981 -0.052405,-0.0479 -0.3860203,-0.35682 -0.4862653,-0.45036 -0.1914419,-0.17865 -0.5921538,-0.54714 -0.6422718,-0.59064 -0.014024,-0.0122 -0.1008329,-0.0919 -0.1928898,-0.17719 -0.2426797,-0.22481 -0.5990714,-0.55401 -0.6930646,-0.64017 -0.075199,-0.069 -0.1217346,-0.11197 -0.3622257,-0.33485 -0.094878,-0.0879 -0.2833571,-0.26198 -0.3908397,-0.36092 -0.03657,-0.0337 -0.155214,-0.1429 -0.2637052,-0.24279 -0.1084918,-0.0999 -1.5029536,-1.48746 -3.0988022,-3.08347 -2.1545529,-2.15476 -2.90487051,-2.89659 -2.91445607,-2.88146 -0.067082,0.10592 0.12541167,0.62703 0.43841927,1.18689 0.3741864,0.6693 1.0114601,1.61871 1.4528201,2.16445 0.3238272,0.40039 0.5684786,0.68587 0.8847874,1.0324 0.092659,0.10151 0.179056,0.19528 0.1919898,0.20834 0.012928,0.0131 0.1198557,0.12568 0.2376135,0.2502 0.6057827,0.64059 1.7443868,1.75636 1.7923119,1.75636 0.00931,0 0.1163973,-0.0997 0.2380164,-0.2215 0.1914511,-0.19177 0.2273589,-0.22148 0.2676195,-0.22148 0.049339,0 0.09209,0.0423 0.5741445,0.56848 0.1704292,0.18602 0.2188986,0.23849 0.4228751,0.45776 0.052892,0.0568 0.2481816,0.26948 0.4339879,0.47251 0.185811,0.20303 0.3751428,0.40902 0.4207357,0.45774 0.045624,0.0487 0.1256112,0.13462 0.1778159,0.19088 0.052223,0.0563 0.11124,0.11936 0.1311941,0.14026 0.041385,0.0434 0.1358973,0.14586 0.3476383,0.377 0.3828402,0.41794 0.5369026,0.58508 0.6335484,0.68734 0.057616,0.061 0.1412976,0.15083 0.1859646,0.19972 0.044684,0.0489 0.1547939,0.16845 0.244727,0.26571 0.08994,0.0972 0.242783,0.26319 0.339666,0.36876 0.231884,0.25271 1.336423,1.45178 1.500625,1.62906 0.218926,0.23636 0.315833,0.28743 0.528563,0.27856 0.09758,-0.004 0.142699,-0.0137 0.202736,-0.0432 z m -3.6861626,-4.99225 c 0.076406,-0.0838 0.2486743,-0.27156 0.3828099,-0.41715 0.1341346,-0.14558 0.3963001,-0.43083 0.5825936,-0.63386 0.1862961,-0.20303 0.3729251,-0.40569 0.4147351,-0.45035 0.0418,-0.0447 0.170998,-0.18421 0.287098,-0.3101 0.116099,-0.12588 0.288075,-0.30694 0.382163,-0.40237 0.197402,-0.2002 0.206927,-0.20359 0.340498,-0.12115 0.207665,0.12818 0.445106,0.19891 0.702235,0.2092 0.28963,0.0115 0.491635,-0.0359 0.722797,-0.17013 0.08202,-0.0477 0.355957,-0.30698 0.495397,-0.46906 0.02841,-0.033 0.128735,-0.14597 0.222912,-0.25096 0.166641,-0.18579 0.365165,-0.40965 0.5229,-0.5896 0.07967,-0.0909 0.18532,-0.21093 0.546707,-0.62119 0.113976,-0.12937 0.264325,-0.30167 0.334109,-0.38289 0.06978,-0.0811 0.235678,-0.27394 0.368651,-0.42828 0.377132,-0.43775 0.472339,-0.55476 0.403763,-0.49627 -0.165527,0.1412 -1.288116,1.22457 -2.032612,1.9616 -0.414344,0.41019 -0.493805,0.47535 -0.580537,0.47605 -0.112849,8.1e-4 -0.268837,-0.11386 -0.30111,-0.22158 -0.02977,-0.0994 -0.0099,-0.16581 0.07824,-0.26228 0.04238,-0.0464 0.262786,-0.28689 0.489846,-0.53458 0.502942,-0.54866 1.196758,-1.31469 1.357288,-1.49856 0.06497,-0.0745 0.187532,-0.21454 0.27236,-0.31139 0.08483,-0.0968 0.167885,-0.19236 0.184576,-0.21227 0.07611,-0.0908 -0.767422,0.68595 -1.586215,1.46058 -0.141948,0.13429 -0.327999,0.31012 -0.413449,0.39073 -0.08545,0.0806 -0.165845,0.15701 -0.178659,0.16979 -0.119678,0.11947 -0.451494,0.4258 -0.476472,0.43988 -0.01746,0.0101 -0.06502,0.0179 -0.105639,0.0179 -0.07837,0 -0.108398,-0.0124 -0.181652,-0.0749 -0.114859,-0.0981 -0.142479,-0.24779 -0.06637,-0.35992 0.02193,-0.0324 0.05092,-0.0688 0.06429,-0.081 0.0134,-0.0122 0.106384,-0.10854 0.206598,-0.21413 0.100215,-0.10556 0.242826,-0.25507 0.316905,-0.33223 0.135584,-0.14118 0.839212,-0.88879 0.965869,-1.02623 0.03741,-0.0406 0.187553,-0.20339 0.333625,-0.36176 0.432106,-0.46848 0.542444,-0.59065 0.533467,-0.59065 -0.01031,0 -0.158322,0.12843 -0.495225,0.42969 -0.07629,0.0682 -0.199216,0.1769 -0.273171,0.24153 -0.07396,0.0646 -0.32716,0.29351 -0.56268,0.50867 -0.235516,0.21517 -0.458114,0.41753 -0.494661,0.4497 -0.03657,0.0322 -0.106313,0.0956 -0.155045,0.14101 -0.04871,0.0454 -0.161685,0.14886 -0.251017,0.22992 -0.08934,0.0811 -0.202298,0.18629 -0.251025,0.23382 -0.137131,0.13379 -0.231877,0.16903 -0.342348,0.12729 -0.103311,-0.0391 -0.19661,-0.18486 -0.19661,-0.3073 0,-0.0647 0.0075,-0.082 0.06552,-0.15185 0.03605,-0.0434 0.119594,-0.13203 0.18569,-0.19701 0.134386,-0.13209 1.09523,-1.11215 1.158125,-1.18127 0.02219,-0.0244 0.134412,-0.14093 0.249433,-0.25905 0.230053,-0.23621 0.641977,-0.66976 0.75636,-0.79605 0.09277,-0.10244 0.06679,-0.0821 -0.349814,0.27503 -0.439194,0.37641 -0.404434,0.34621 -1.000431,0.86854 -0.28736,0.25182 -0.583049,0.51025 -0.657088,0.57428 -0.07405,0.0641 -0.197746,0.17402 -0.274897,0.24441 -0.07715,0.0704 -0.226658,0.20373 -0.332236,0.29629 -0.463093,0.40596 -0.57068,0.5247 -0.672219,0.7419 -0.0744,0.15913 -0.107445,0.31998 -0.108481,0.52796 -0.0015,0.26759 0.0396,0.43363 0.170994,0.694 0.08737,0.1731 0.09858,0.20419 0.08512,0.23626 -0.02119,0.0506 -0.179306,0.20395 -0.715755,0.69464 -0.2517601,0.23028 -0.5906406,0.54241 -0.7530651,0.69362 -0.1624265,0.15121 -0.4714072,0.43671 -0.686621,0.63444 -0.2152168,0.19772 -0.3913005,0.36551 -0.3913005,0.37284 0,0.0138 0.5394354,0.52636 0.5550738,0.52749 0.00465,3.5e-4 0.071246,-0.0679 0.1476633,-0.15179 z"
       id="path3732"
       inkscape:connector-curvature="0" />
  </g>
</svg>
