<?xml version="1.0" encoding="UTF-8" standalone="no"?>
<!-- Created with Inkscape (http://www.inkscape.org/) -->

<svg
   xmlns:dc="http://purl.org/dc/elements/1.1/"
   xmlns:cc="http://creativecommons.org/ns#"
   xmlns:rdf="http://www.w3.org/1999/02/22-rdf-syntax-ns#"
   xmlns:svg="http://www.w3.org/2000/svg"
   xmlns="http://www.w3.org/2000/svg"
   xmlns:sodipodi="http://sodipodi.sourceforge.net/DTD/sodipodi-0.dtd"
   xmlns:inkscape="http://www.inkscape.org/namespaces/inkscape"
   width="184"
   height="46"
   viewBox="0 0 48.683332 12.170834"
   version="1.1"
   id="svg3755"
   inkscape:version="0.92.4 (5da689c313, 2019-01-14)"
   sodipodi:docname="little-logo.svg"
   inkscape:export-filename="C:\Users\danie\Documents\Tutorials\Curso Programador\Course Project\CourseProjectRecipes\WebPage\img\little-logo.png"
   inkscape:export-xdpi="96"
   inkscape:export-ydpi="96">
  <defs
     id="defs3749" />
  <sodipodi:namedview
     id="base"
     pagecolor="#ffffff"
     bordercolor="#666666"
     borderopacity="1.0"
     inkscape:pageopacity="0.0"
     inkscape:pageshadow="2"
     inkscape:zoom="3.959798"
     inkscape:cx="56.367077"
     inkscape:cy="37.990955"
     inkscape:document-units="mm"
     inkscape:current-layer="layer1"
     showgrid="false"
     units="px"
     inkscape:window-width="1920"
     inkscape:window-height="1017"
     inkscape:window-x="-32000"
     inkscape:window-y="-32000"
     inkscape:window-maximized="0" />
  <metadata
     id="metadata3752">
    <rdf:RDF>
      <cc:Work
         rdf:about="">
        <dc:format>image/svg+xml</dc:format>
        <dc:type
           rdf:resource="http://purl.org/dc/dcmitype/StillImage" />
        <dc:title></dc:title>
      </cc:Work>
    </rdf:RDF>
  </metadata>
  <g
     inkscape:label="Layer 1"
     inkscape:groupmode="layer"
     id="layer1"
     transform="translate(0,-284.82914)">
    <text
       xml:space="preserve"
       style="font-style:normal;font-weight:normal;font-size:4.54042578px;line-height:1.25;font-family:sans-serif;letter-spacing:0px;word-spacing:0px;fill:#000000;fill-opacity:1;stroke:none;stroke-width:0.11351065"
       x="29.064081"
       y="290.75815"
       id="text3715"><tspan
         sodipodi:role="line"
         id="tspan3713"
         x="29.064081"
         y="290.75815"
         style="font-style:normal;font-variant:normal;font-weight:normal;font-stretch:normal;font-size:5.44851112px;font-family:'Berlin Sans FB Demi';-inkscape-font-specification:'Berlin Sans FB Demi';text-align:center;text-anchor:middle;stroke-width:0.11351065">DBraga Recipes</tspan></text>
    <text
       xml:space="preserve"
       style="font-style:normal;font-weight:normal;font-size:4.54042578px;line-height:1.25;font-family:sans-serif;letter-spacing:0px;word-spacing:0px;fill:#000000;fill-opacity:1;stroke:none;stroke-width:0.11351065"
       x="47.937183"
       y="293.63647"
       id="text3719"><tspan
         sodipodi:role="line"
         id="tspan3717"
         x="47.937183"
         y="293.63647"
         style="font-style:normal;font-variant:normal;font-weight:normal;font-stretch:normal;font-size:2.11886525px;font-family:Arial;-inkscape-font-specification:Arial;text-align:end;text-anchor:end;stroke-width:0.11351065">by Daniel Braga</tspan></text>
    <path
       style="fill:#000000;stroke-width:0.0088156"
       d="m 2.1244396,294.48953 c -0.1350504,-0.0339 -0.2553292,-0.12414 -0.3239177,-0.2431 -0.067043,-0.11628 -0.082581,-0.28097 -0.038678,-0.40992 0.040059,-0.11765 0.083954,-0.16936 0.3449651,-0.4063 0.058184,-0.0527 0.1077684,-0.0982 0.1101933,-0.10092 0.00563,-0.006 0.4862992,-0.44901 0.7928225,-0.73038 0.1288089,-0.11825 0.2619641,-0.24135 0.2959055,-0.27358 0.033944,-0.0322 0.085511,-0.0799 0.114603,-0.10596 0.029078,-0.0261 0.1044637,-0.0956 0.1674952,-0.15474 0.063032,-0.059 0.138406,-0.12856 0.167496,-0.15445 0.029078,-0.026 0.054875,-0.0494 0.057303,-0.0521 0.00246,-0.003 0.051981,-0.0487 0.1101334,-0.10204 0.1776195,-0.16291 0.3096089,-0.28511 0.3821865,-0.35385 l 0.057154,-0.0542 -0.2575658,-0.28087 c -0.1416631,-0.15448 -0.2632072,-0.28475 -0.2701034,-0.28949 -0.00961,-0.007 -0.037596,0.0166 -0.1207512,0.1004 -0.1016087,0.10243 -0.1432249,0.13305 -0.180662,0.13293 -0.048619,-1.5e-4 -0.084711,-0.0217 -0.1673614,-0.0999 -0.047503,-0.0449 -0.1305984,-0.12318 -0.1846564,-0.17381 -0.1079092,-0.10102 -0.6323247,-0.62563 -0.7793979,-0.77964 -0.1707322,-0.1788 -0.4160242,-0.44715 -0.5151808,-0.5636 -0.024239,-0.0285 -0.050027,-0.0581 -0.057303,-0.0661 -0.014209,-0.0153 -0.1225998,-0.14601 -0.196908,-0.23737 -0.025049,-0.0308 -0.055703,-0.0685 -0.068152,-0.0838 -0.02014,-0.0247 -0.1303837,-0.17092 -0.2203698,-0.29225 -0.093465,-0.12601 -0.2943561,-0.42326 -0.42001595,-0.62149 -0.058289,-0.092 -0.24058317,-0.40101 -0.24058317,-0.40789 0,-0.003 -0.0173678,-0.0357 -0.0385724,-0.074 -0.1006152,-0.1819 -0.1866272,-0.39734 -0.21375342,-0.53539 -0.0233333,-0.11879 1.1878e-4,-0.20447 0.0631986,-0.23083 0.0407452,-0.017 0.0642192,-0.0157 0.10551339,0.006 0.0217756,0.0114 0.71442655,0.69691 1.82029375,1.80152 1.2537534,1.2523 1.8634646,1.85499 2.0482186,2.02461 0.1446837,0.13284 0.2747402,0.25105 0.2890111,0.26272 l 0.025955,0.0212 0.023958,-0.0219 c 0.1475449,-0.13508 0.6190269,-0.56908 0.6630758,-0.61033 0.031515,-0.0295 0.1049055,-0.0973 0.163089,-0.15046 0.058184,-0.0532 0.1275506,-0.11669 0.1541508,-0.14104 0.026614,-0.0243 0.082142,-0.0762 0.123418,-0.11512 0.041281,-0.0389 0.1167067,-0.109 0.1676184,-0.15562 0.050907,-0.0466 0.1154836,-0.10624 0.1434967,-0.13247 l 0.050934,-0.0478 -0.043921,-0.092 c -0.1671802,-0.35017 -0.1265318,-0.74091 0.1040264,-0.99989 0.062292,-0.07 0.385244,-0.36518 0.6220078,-0.56856 0.014209,-0.0123 0.045945,-0.0406 0.070528,-0.0628 0.1035619,-0.0942 0.9126465,-0.79965 0.9745851,-0.84972 0.017993,-0.0145 0.1156334,-0.096 0.216986,-0.1809 0.2830053,-0.23721 0.3927604,-0.31718 0.4352855,-0.31718 0.068495,0 0.082001,0.0624 0.029325,0.13546 -0.1063845,0.14761 -0.6469644,0.72207 -1.3558366,1.44081 -0.1115165,0.11307 -0.2451872,0.24956 -0.2970421,0.3033 l -0.094284,0.0977 0.017552,0.0344 c 0.01955,0.0383 0.036126,0.0484 0.060647,0.0368 0.00906,-0.003 0.061404,-0.0497 0.1163187,-0.10102 0.054911,-0.0513 0.2109203,-0.19428 0.346679,-0.31775 0.3018276,-0.27449 0.3382158,-0.30767 0.405349,-0.36974 0.053538,-0.0494 0.33465,-0.30016 0.4093938,-0.36507 0.022207,-0.0193 0.08039,-0.0708 0.1293024,-0.11461 0.04891,-0.0437 0.1024675,-0.0912 0.1190102,-0.10532 0.1994104,-0.17099 0.3581785,-0.29851 0.3959717,-0.31804 0.03866,-0.02 0.084385,-0.017 0.1008333,0.006 0.00757,0.0109 0.013708,0.0281 0.013708,0.0382 0,0.028 -0.057497,0.11075 -0.1552013,0.22339 -0.047977,0.0554 -0.1011121,0.11733 -0.1180827,0.13781 -0.044027,0.0532 -0.2294506,0.25556 -0.5238868,0.57193 -0.1402582,0.1507 -0.3103752,0.33352 -0.3780389,0.40625 -0.067668,0.0727 -0.1314283,0.14026 -0.1416915,0.15009 -0.010276,0.0101 -0.052385,0.0536 -0.093597,0.0971 -0.041212,0.0435 -0.138326,0.14575 -0.2158122,0.22711 -0.077487,0.0813 -0.1443776,0.15412 -0.14865,0.16176 -0.00879,0.0156 0.013022,0.0502 0.045039,0.0715 0.018493,0.0123 0.023421,0.009 0.1056135,-0.0697 0.047424,-0.0454 0.1575504,-0.14996 0.2447342,-0.23239 0.087183,-0.0825 0.2001909,-0.18972 0.2511254,-0.23845 0.050934,-0.0488 0.1243481,-0.11808 0.1631348,-0.15416 0.038791,-0.0361 0.1042447,-0.0974 0.1454579,-0.13622 0.1031396,-0.0973 0.2923106,-0.27262 0.3614383,-0.33513 0.031524,-0.0285 0.059283,-0.0544 0.061711,-0.0574 0.00246,-0.003 0.04606,-0.0427 0.096969,-0.0879 0.050908,-0.0452 0.1064479,-0.0949 0.123419,-0.11054 0.1491374,-0.13702 0.3228248,-0.28404 0.3833206,-0.32447 0.079959,-0.0534 0.1506868,-0.008 0.1155611,0.0739 -0.019462,0.0454 -0.1928784,0.26273 -0.3406353,0.42673 -0.022048,0.0244 -0.051374,0.0584 -0.065143,0.0754 -0.013778,0.017 -0.051717,0.0607 -0.084323,0.097 -0.032607,0.0363 -0.09826,0.10976 -0.1458925,0.1631 -0.047635,0.0534 -0.1245364,0.13867 -0.170894,0.18963 -0.046359,0.0509 -0.1140338,0.12615 -0.1503967,0.16706 -0.099882,0.1124 -0.2257543,0.25043 -0.5002446,0.54856 -0.1369966,0.14881 -0.2490824,0.27654 -0.2490824,0.28386 0,0.007 0.014025,0.024 0.031146,0.037 0.026052,0.0199 0.034543,0.0223 0.051743,0.0144 0.011306,-0.005 0.1530043,-0.13959 0.3148536,-0.29873 0.4406164,-0.43324 0.5490544,-0.53861 0.902547,-0.87694 0.1752359,-0.16773 0.4752326,-0.44325 0.5647559,-0.5187 0.050537,-0.0426 0.1116925,-0.0795 0.1315837,-0.0795 0.011087,0 0.029326,0.007 0.040543,0.0164 0.032476,0.0263 0.02705,0.0663 -0.018094,0.13347 -0.04092,0.0609 -0.1420318,0.19226 -0.1938496,0.25188 -0.017209,0.0197 -0.057075,0.067 -0.088586,0.10507 -0.031515,0.038 -0.096214,0.11503 -0.1437748,0.17117 -0.047555,0.0561 -0.095162,0.11242 -0.1057852,0.12504 -0.01062,0.0127 -0.065539,0.0761 -0.1220377,0.14105 -0.056494,0.0649 -0.1477376,0.16992 -0.2027581,0.23324 -0.1490907,0.1716 -0.3880771,0.44287 -0.6286101,0.71354 -0.064976,0.0731 -0.1834827,0.20786 -0.2207534,0.25099 -0.014561,0.0168 -0.0443,0.0489 -0.06612,0.071 -0.021838,0.0222 -0.068302,0.0706 -0.1033041,0.10738 -0.1679245,0.17694 -0.3458124,0.25809 -0.5887182,0.26857 -0.1786727,0.008 -0.3215289,-0.0232 -0.491214,-0.10646 l -0.07688,-0.0377 -0.1312152,0.13745 c -0.072164,0.0756 -0.2897236,0.31003 -0.4834582,0.52093 -0.193731,0.21092 -0.4214166,0.45871 -0.5059662,0.55064 -0.084553,0.092 -0.1734086,0.18862 -0.1974579,0.21485 l -0.043728,0.0477 0.01874,0.0151 c 0.022831,0.0185 0.2495074,0.22637 0.5002666,0.45881 0.1020424,0.0946 0.2886767,0.26654 0.4147369,0.38212 0.1260646,0.11558 0.2470587,0.22697 0.268877,0.24749 0.036143,0.0341 0.4520067,0.41679 0.722879,0.66535 0.060612,0.0556 0.1538323,0.14141 0.2071688,0.19066 0.053336,0.0493 0.1294308,0.11916 0.1691008,0.15537 0.1436755,0.13112 0.1881617,0.20311 0.2079255,0.33644 0.019365,0.1306 -0.025858,0.26619 -0.1213751,0.36382 -0.1388804,0.142 -0.3427972,0.17498 -0.523724,0.0847 -0.053749,-0.0268 -0.100819,-0.0707 -0.2524256,-0.2351 -0.057973,-0.0629 -0.135163,-0.14622 -0.1715275,-0.18517 -0.036363,-0.0389 -0.1752079,-0.18973 -0.308547,-0.33502 -0.1333355,-0.14531 -0.3175581,-0.34563 -0.4093866,-0.44515 -0.091829,-0.0995 -0.2106238,-0.22856 -0.2639947,-0.28674 -0.053371,-0.0581 -0.117949,-0.12761 -0.1435091,-0.15427 -0.025551,-0.0267 -0.053547,-0.0568 -0.062178,-0.0671 -0.00862,-0.0102 -0.055703,-0.0619 -0.1045764,-0.11459 -0.2611986,-0.28205 -0.4470858,-0.48316 -0.5042575,-0.54553 l -0.064193,-0.0701 -0.055606,0.057 c -0.030583,0.0314 -0.1026584,0.10862 -0.1601583,0.17164 -0.057497,0.063 -0.1468137,0.16022 -0.1984786,0.216 -0.051664,0.0558 -0.1724126,0.18666 -0.2683261,0.29091 -0.095915,0.10424 -0.1947779,0.21135 -0.219695,0.23801 -0.024926,0.0267 -0.1382089,0.14965 -0.2517561,0.2733 -0.178347,0.19419 -0.3009909,0.3271 -0.4758926,0.5157 -0.022489,0.0242 -0.068012,0.0738 -0.1011771,0.1102 -0.033179,0.0363 -0.08083,0.0879 -0.1059234,0.1146 -0.04474,0.0476 -0.27969,0.30365 -0.3927753,0.42812 -0.086902,0.0956 -0.1857034,0.15677 -0.2894017,0.17901 -0.059732,0.0128 -0.1699297,0.0116 -0.2263105,-0.003 z m 0.2809711,-0.13538 c 0.064914,-0.0304 0.112392,-0.0744 0.2830924,-0.26218 0.048418,-0.0532 0.1122538,-0.12257 0.1418717,-0.15409 0.029616,-0.0314 0.1285168,-0.13861 0.2197768,-0.23801 0.1511532,-0.16463 0.2148779,-0.23396 0.3970206,-0.43196 0.033451,-0.0363 0.076801,-0.0837 0.09633,-0.10517 0.019523,-0.0215 0.063647,-0.0691 0.098038,-0.10578 0.034393,-0.0367 0.1173638,-0.12625 0.184388,-0.19898 0.067018,-0.0727 0.1420662,-0.15405 0.1667649,-0.18072 0.024706,-0.0267 0.080575,-0.0878 0.1241616,-0.13582 0.043587,-0.0481 0.089167,-0.0977 0.1012897,-0.11029 0.012115,-0.0126 0.061712,-0.0664 0.1101958,-0.11949 0.048488,-0.053 0.097939,-0.10662 0.1098923,-0.11892 0.082027,-0.0845 0.344109,-0.37434 0.344109,-0.38064 0,-0.006 -0.2182695,-0.24938 -0.3222335,-0.35917 l -0.019867,-0.021 -0.1176551,0.10846 c -0.064712,0.0596 -0.1335204,0.12331 -0.1529154,0.14146 -0.019391,0.0181 -0.092784,0.0857 -0.1630881,0.15018 -0.070308,0.0645 -0.1378149,0.12727 -0.1500181,0.1396 -0.012221,0.0123 -0.089474,0.0839 -0.1717071,0.15905 -0.082238,0.0752 -0.1753916,0.16082 -0.2070155,0.19039 -0.031622,0.0296 -0.1152594,0.10691 -0.1858539,0.1719 -0.070598,0.065 -0.2231149,0.20543 -0.3389294,0.3121 -0.1158154,0.10667 -0.2344885,0.21576 -0.2637131,0.24242 -0.1244149,0.11352 -0.1872432,0.17162 -0.2088185,0.1931 -0.012652,0.0126 -0.058175,0.0547 -0.1011771,0.0934 -0.2438465,0.21995 -0.4367196,0.40394 -0.4614298,0.44015 -0.14783,0.21667 -0.047476,0.50736 0.2064155,0.59794 0.033839,0.0121 0.064853,0.0151 0.1323493,0.0131 0.077892,-0.002 0.095215,-0.006 0.148738,-0.031 z m 5.0897541,-0.10976 c 0.098305,-0.0483 0.1549769,-0.11419 0.183517,-0.21347 0.020025,-0.0697 0.013092,-0.15429 -0.018362,-0.22442 -0.028453,-0.0634 -0.065381,-0.10011 -0.5153821,-0.5118 -0.06546,-0.0599 -0.1388575,-0.1271 -0.1631128,-0.14938 -0.1895456,-0.17409 -0.2772644,-0.25492 -0.4244336,-0.39115 -0.092844,-0.0859 -0.1731745,-0.15625 -0.178516,-0.15625 -0.00537,0 -0.00972,-0.003 -0.00972,-0.008 0,-0.004 -0.00537,-0.0135 -0.011904,-0.0198 -0.00928,-0.009 -0.1372772,-0.12691 -0.1946091,-0.17914 -0.00527,-0.005 -0.05521,-0.0504 -0.1108548,-0.10143 -0.05565,-0.0509 -0.1055223,-0.0966 -0.1108329,-0.10142 -0.031287,-0.0286 -0.2304615,-0.21303 -0.2903106,-0.26887 -0.1142942,-0.10666 -0.3535268,-0.32667 -0.3834483,-0.35263 -0.00836,-0.007 -0.060198,-0.0549 -0.1151598,-0.10579 -0.1448835,-0.13422 -0.3576568,-0.33076 -0.4137727,-0.38219 -0.044898,-0.0412 -0.072674,-0.0668 -0.2162557,-0.19992 -0.056644,-0.0525 -0.1691695,-0.1564 -0.2333394,-0.21547 -0.021828,-0.0201 -0.092666,-0.0853 -0.1574369,-0.14496 -0.064773,-0.0596 -0.8972933,-0.88804 -1.8500462,-1.84088 -1.28631005,-1.28643 -1.73426522,-1.72933 -1.73998764,-1.72029 -0.0400501,0.0633 0.0748739,0.37436 0.26174489,0.70861 0.22339655,0.39956 0.60386205,0.96639 0.86736235,1.29219 0.1933315,0.23906 0.339393,0.40949 0.5282357,0.61637 0.055315,0.0607 0.1069,0.11659 0.1146214,0.1244 0.00774,0.008 0.071557,0.075 0.1418603,0.14937 0.3616644,0.38244 1.0414333,1.04857 1.0700455,1.04857 0.00555,0 0.069489,-0.0594 0.1421005,-0.13223 0.1142995,-0.11449 0.1357376,-0.13223 0.1597738,-0.13223 0.029457,0 0.054981,0.0253 0.3427752,0.3394 0.1017503,0.11106 0.1306872,0.14237 0.2524653,0.27329 0.031577,0.034 0.1481696,0.16088 0.2590992,0.28209 0.1109333,0.12121 0.2239675,0.24419 0.2511878,0.27328 0.027239,0.029 0.074989,0.0803 0.1061592,0.11396 0.031173,0.0336 0.06641,0.0713 0.078323,0.0838 0.024706,0.026 0.08113,0.0871 0.207547,0.22507 0.2285628,0.24952 0.3205408,0.34931 0.3782414,0.41036 0.034393,0.0364 0.084359,0.0901 0.1110238,0.11923 0.026676,0.0292 0.092415,0.10062 0.1461072,0.15864 0.053697,0.058 0.1449459,0.15713 0.2027872,0.22016 0.1384395,0.15087 0.797871,0.86674 0.8959032,0.97257 0.1307022,0.14112 0.1885575,0.17161 0.3155618,0.16632 0.058254,-0.003 0.085195,-0.008 0.1210381,-0.0258 z M 5.294453,291.26391 c 0.045619,-0.0501 0.1484635,-0.16211 0.2285453,-0.24904 0.080083,-0.0869 0.2365992,-0.25722 0.3478201,-0.37843 0.1112227,-0.12121 0.2226433,-0.2422 0.2476043,-0.26887 0.024961,-0.0267 0.1020891,-0.10996 0.1714033,-0.18512 0.069314,-0.0752 0.1719868,-0.18326 0.228159,-0.24023 0.1178522,-0.11953 0.1235395,-0.12156 0.2032843,-0.0723 0.1239794,0.0766 0.2657368,0.11875 0.4192478,0.1249 0.172915,0.007 0.2935158,-0.0215 0.4315242,-0.10157 0.048971,-0.0285 0.2125129,-0.18328 0.2957611,-0.28004 0.016963,-0.0197 0.076854,-0.0872 0.1330831,-0.14983 0.099487,-0.11092 0.21801,-0.24457 0.3121824,-0.352 0.047573,-0.0543 0.1106393,-0.12594 0.3263945,-0.37086 0.068046,-0.0773 0.1578073,-0.18012 0.1994692,-0.22861 0.04166,-0.0485 0.1407051,-0.16354 0.2200919,-0.25568 0.2251552,-0.26134 0.2819961,-0.33121 0.2410546,-0.29629 -0.098823,0.0843 -0.7690299,0.7311 -1.2135089,1.17111 -0.2473729,0.24491 -0.2948118,0.2838 -0.3465928,0.28422 -0.067369,4.8e-4 -0.1605005,-0.0679 -0.1797679,-0.13228 -0.017772,-0.0593 -0.00589,-0.099 0.046711,-0.1566 0.025304,-0.0276 0.1568887,-0.17126 0.2924486,-0.31915 0.3002659,-0.32756 0.7144882,-0.78489 0.8103269,-0.89467 0.038792,-0.0444 0.1119599,-0.12809 0.1626042,-0.1859 0.050643,-0.0578 0.1002318,-0.11485 0.1101958,-0.12673 0.045444,-0.0542 -0.4581655,0.40952 -0.9470023,0.87199 -0.084745,0.0801 -0.1958215,0.18515 -0.2468361,0.23328 -0.051013,0.0482 -0.099013,0.0937 -0.1066634,0.10132 -0.071451,0.0714 -0.2695508,0.25421 -0.2844631,0.26262 -0.010426,0.006 -0.038818,0.0107 -0.063066,0.0107 -0.04679,0 -0.064712,-0.007 -0.1084494,-0.0447 -0.068575,-0.0585 -0.085063,-0.14793 -0.039619,-0.21487 0.013092,-0.0194 0.030399,-0.0411 0.038387,-0.0483 0.008,-0.007 0.063515,-0.0648 0.1233433,-0.12784 0.059829,-0.063 0.1449714,-0.15228 0.1891981,-0.19834 0.080945,-0.0843 0.501026,-0.53063 0.5766425,-0.61269 0.022339,-0.0242 0.111974,-0.12143 0.1991816,-0.21598 0.2579758,-0.27968 0.3238492,-0.35262 0.31849,-0.35262 -0.00616,0 -0.094521,0.0767 -0.2956582,0.25654 -0.045549,0.0408 -0.1189363,0.1056 -0.1630891,0.14418 -0.04415,0.0386 -0.1953208,0.17524 -0.3359309,0.30369 -0.1406074,0.12846 -0.2735031,0.24928 -0.2953221,0.26847 -0.021838,0.0193 -0.063471,0.0571 -0.092565,0.0842 -0.029078,0.0271 -0.09653,0.0889 -0.1498624,0.13727 -0.053336,0.0484 -0.120776,0.11121 -0.1498668,0.1396 -0.081869,0.0799 -0.138436,0.10092 -0.2043893,0.0761 -0.061677,-0.0233 -0.1173798,-0.11037 -0.1173798,-0.18347 0,-0.0386 0.00448,-0.0489 0.039118,-0.0907 0.021521,-0.026 0.071399,-0.0788 0.110861,-0.11761 0.080232,-0.0788 0.6538736,-0.66398 0.6914233,-0.70525 0.01325,-0.0145 0.080249,-0.0841 0.1489165,-0.15465 0.1373458,-0.14102 0.3832732,-0.39986 0.4515616,-0.47526 0.055385,-0.0612 0.039874,-0.049 -0.2088457,0.1642 -0.2622078,0.22472 -0.2414542,0.20669 -0.5972773,0.51853 -0.1715591,0.15035 -0.348092,0.30464 -0.3922941,0.34285 -0.044203,0.0382 -0.1180581,0.10389 -0.1641184,0.14592 -0.04606,0.0421 -0.1353196,0.12164 -0.1983519,0.17689 -0.276476,0.24238 -0.3407075,0.31326 -0.4013282,0.44293 -0.044414,0.095 -0.064148,0.19103 -0.064765,0.31521 -8.798e-4,0.15975 0.02365,0.25889 0.1020874,0.41433 0.052157,0.10334 0.058852,0.1219 0.050819,0.14104 -0.012651,0.0302 -0.1070496,0.12177 -0.4273195,0.41472 -0.1503066,0.13748 -0.3526249,0.32384 -0.449595,0.4141 -0.096972,0.0903 -0.2814392,0.26072 -0.4099269,0.37878 -0.1284885,0.11805 -0.2336139,0.21821 -0.2336139,0.2226 0,0.008 0.3220541,0.31424 0.3313901,0.31491 0.00282,2.3e-4 0.04254,-0.0406 0.088157,-0.0906 z"
       id="path3732"
       inkscape:connector-curvature="0" />
  </g>
</svg>
