<?xml version="1.0" encoding="UTF-8" standalone="no"?>
<!-- Created with Inkscape (http://www.inkscape.org/) -->

<svg
   xmlns:dc="http://purl.org/dc/elements/1.1/"
   xmlns:cc="http://creativecommons.org/ns#"
   xmlns:rdf="http://www.w3.org/1999/02/22-rdf-syntax-ns#"
   xmlns:svg="http://www.w3.org/2000/svg"
   xmlns="http://www.w3.org/2000/svg"
   xmlns:sodipodi="http://sodipodi.sourceforge.net/DTD/sodipodi-0.dtd"
   xmlns:inkscape="http://www.inkscape.org/namespaces/inkscape"
   width="384"
   height="92"
   viewBox="0 0 101.6 24.341667"
   version="1.1"
   id="svg8"
   inkscape:version="0.92.4 (5da689c313, 2019-01-14)"
   sodipodi:docname="drawing.svg"
   inkscape:export-filename="C:\Users\danie\Documents\Tutorials\Curso Programador\Course Project\CourseProjectRecipes\WebPage\img\logo.png"
   inkscape:export-xdpi="96"
   inkscape:export-ydpi="96">
  <title
     id="title3734">Logo</title>
  <defs
     id="defs2" />
  <sodipodi:namedview
     id="base"
     pagecolor="#ffffff"
     bordercolor="#666666"
     borderopacity="1.0"
     inkscape:pageopacity="0.0"
     inkscape:pageshadow="2"
     inkscape:zoom="2.8"
     inkscape:cx="173.209"
     inkscape:cy="66.597532"
     inkscape:document-units="mm"
     inkscape:current-layer="layer1"
     showgrid="false"
     units="px"
     inkscape:window-width="1920"
     inkscape:window-height="1017"
     inkscape:window-x="-8"
     inkscape:window-y="-8"
     inkscape:window-maximized="1" />
  <metadata
     id="metadata5">
    <rdf:RDF>
      <cc:Work
         rdf:about="">
        <dc:format>image/svg+xml</dc:format>
        <dc:type
           rdf:resource="http://purl.org/dc/dcmitype/StillImage" />
        <dc:title>Logo</dc:title>
      </cc:Work>
    </rdf:RDF>
  </metadata>
  <g
     inkscape:label="Layer 1"
     inkscape:groupmode="layer"
     id="layer1"
     transform="translate(0,-272.65831)">
    <text
       xml:space="preserve"
       style="font-style:normal;font-weight:normal;font-size:9.49142647px;line-height:1.25;font-family:sans-serif;letter-spacing:0px;word-spacing:0px;fill:#000000;fill-opacity:1;stroke:none;stroke-width:0.23728564"
       x="60.008118"
       y="285.3262"
       id="text3715"><tspan
         sodipodi:role="line"
         id="tspan3713"
         x="60.008118"
         y="285.3262"
         style="font-style:normal;font-variant:normal;font-weight:normal;font-stretch:normal;font-size:11.38971138px;font-family:'Berlin Sans FB Demi';-inkscape-font-specification:'Berlin Sans FB Demi';text-align:center;text-anchor:middle;stroke-width:0.23728564">DBraga Recipes</tspan></text>
    <text
       xml:space="preserve"
       style="font-style:normal;font-weight:normal;font-size:9.49142647px;line-height:1.25;font-family:sans-serif;letter-spacing:0px;word-spacing:0px;fill:#000000;fill-opacity:1;stroke:none;stroke-width:0.23728564"
       x="99.460938"
       y="291.34311"
       id="text3719"><tspan
         sodipodi:role="line"
         id="tspan3717"
         x="99.460938"
         y="291.34311"
         style="font-style:normal;font-variant:normal;font-weight:normal;font-stretch:normal;font-size:4.42933226px;font-family:Arial;-inkscape-font-specification:Arial;text-align:end;text-anchor:end;stroke-width:0.23728564">by Daniel Braga</tspan></text>
    <path
       style="fill:#000000;stroke-width:0.01842836"
       d="m 3.6927743,293.12631 c -0.2823133,-0.0708 -0.5337467,-0.25951 -0.6771268,-0.50818 -0.1401417,-0.24307 -0.1726265,-0.58737 -0.080846,-0.85693 0.08374,-0.24593 0.1755066,-0.35403 0.7211243,-0.84933 0.1216235,-0.11042 0.2252821,-0.20534 0.23035,-0.21092 0.011692,-0.0129 1.0165743,-0.93864 1.6573377,-1.52683 0.2692658,-0.24716 0.5476159,-0.50451 0.6185681,-0.57188 0.070946,-0.0674 0.1787513,-0.16706 0.2395688,-0.22151 0.060791,-0.0545 0.2183741,-0.20001 0.3501376,-0.32346 0.1317635,-0.12345 0.2893264,-0.26874 0.3501376,-0.32287 0.060791,-0.0542 0.1147208,-0.10314 0.1197876,-0.10899 0.00519,-0.006 0.1086681,-0.10176 0.2302259,-0.2133 0.3712995,-0.34055 0.6472136,-0.59603 0.7989327,-0.73971 l 0.1194674,-0.11315 -0.5384224,-0.58713 c -0.2961361,-0.32292 -0.5502153,-0.59524 -0.5646324,-0.60516 -0.020108,-0.0139 -0.078589,0.0348 -0.2524202,0.20998 -0.2124052,0.21411 -0.2994017,0.27813 -0.3776605,0.27787 -0.1016436,-3.1e-4 -0.177086,-0.0454 -0.3498567,-0.20895 -0.099301,-0.094 -0.2730076,-0.2575 -0.3860112,-0.36332 -0.2255757,-0.21124 -1.3218271,-1.30785 -1.6292731,-1.62981 -0.3569025,-0.37375 -0.8696687,-0.93471 -1.0769488,-1.17816 -0.050668,-0.0596 -0.1045798,-0.12164 -0.1197812,-0.13805 -0.029712,-0.032 -0.2562861,-0.30521 -0.4116219,-0.4962 -0.052364,-0.0643 -0.1164507,-0.14314 -0.1424653,-0.17507 -0.042114,-0.0517 -0.2725582,-0.3573 -0.460666,-0.61092 -0.1953827,-0.26342 -0.6153298,-0.88481 -0.8780141,-1.29919 -0.1218387,-0.19221 -0.50291987,-0.83829 -0.50291987,-0.85266 0,-0.005 -0.036305,-0.0746 -0.080634,-0.15478 -0.21032857,-0.38024 -0.39013137,-0.83059 -0.44683617,-1.11919 -0.048781,-0.24831 2.481e-4,-0.42744 0.1321038,-0.48253 0.085182,-0.0356 0.1342375,-0.0329 0.22056717,0.0123 0.045516,0.0238 1.49345517,1.45683 3.80518907,3.76591 2.6208791,2.61788 3.8954365,3.87776 4.2816512,4.23233 0.3024502,0.27768 0.574323,0.5248 0.604156,0.54918 l 0.05426,0.0443 0.05008,-0.0459 c 0.3084317,-0.28239 1.2940294,-1.18961 1.3861114,-1.27585 0.06588,-0.0617 0.219296,-0.20324 0.340925,-0.31451 0.121623,-0.11127 0.266634,-0.24395 0.322242,-0.29485 0.05563,-0.051 0.171713,-0.1592 0.257996,-0.24066 0.0863,-0.0814 0.243965,-0.22785 0.350392,-0.32531 0.106422,-0.0974 0.241411,-0.22208 0.29997,-0.27692 l 0.106467,-0.0998 -0.09182,-0.19232 c -0.349477,-0.73202 -0.264506,-1.54881 0.21746,-2.09019 0.13021,-0.14626 0.805325,-0.76338 1.30026,-1.18856 0.02971,-0.0255 0.09604,-0.0847 0.147428,-0.13139 0.216486,-0.19695 1.907818,-1.67158 2.037296,-1.77626 0.03761,-0.0304 0.241724,-0.20058 0.453595,-0.37816 0.5916,-0.49586 0.821035,-0.66304 0.909931,-0.66304 0.143184,0 0.171413,0.13039 0.06131,0.28317 -0.222389,0.30857 -1.352432,1.50942 -2.834276,3.01192 -0.233119,0.23636 -0.512546,0.52167 -0.620946,0.63402 l -0.197093,0.20427 0.0367,0.0719 c 0.04087,0.0801 0.07551,0.10112 0.126781,0.0771 0.01893,-0.008 0.128362,-0.10388 0.243155,-0.21114 0.114792,-0.10724 0.440913,-0.40614 0.724708,-0.66423 0.630949,-0.5738 0.707014,-0.64318 0.847351,-0.77291 0.111913,-0.10346 0.699563,-0.62748 0.855807,-0.76316 0.04643,-0.0403 0.168049,-0.14811 0.270298,-0.23957 0.102248,-0.0915 0.214201,-0.19055 0.248782,-0.22019 0.416852,-0.35742 0.748746,-0.624 0.827749,-0.66484 0.08081,-0.0418 0.1764,-0.0357 0.210787,0.0134 0.0158,0.0226 0.02866,0.0586 0.02866,0.08 0,0.0585 -0.120194,0.23151 -0.324437,0.46698 -0.100287,0.11564 -0.211367,0.24527 -0.246843,0.28807 -0.09204,0.11108 -0.479649,0.53423 -1.095147,1.19558 -0.293199,0.31505 -0.648814,0.6972 -0.790262,0.84924 -0.141453,0.15203 -0.274739,0.29322 -0.296195,0.31376 -0.02149,0.0206 -0.109504,0.11184 -0.195656,0.20291 -0.08616,0.0911 -0.289163,0.30471 -0.45114,0.47475 -0.161977,0.17002 -0.301811,0.32219 -0.310744,0.33816 -0.01835,0.0328 0.02723,0.10504 0.09416,0.1495 0.03866,0.0257 0.04897,0.0189 0.220777,-0.14559 0.09913,-0.0949 0.329347,-0.31348 0.511598,-0.48579 0.182252,-0.1723 0.418485,-0.39661 0.524959,-0.49846 0.10648,-0.10186 0.259942,-0.24686 0.341021,-0.32227 0.08109,-0.0754 0.217916,-0.20356 0.30407,-0.28477 0.215605,-0.20324 0.611053,-0.56989 0.755562,-0.70054 0.06589,-0.0596 0.123934,-0.11363 0.129002,-0.12016 0.0052,-0.006 0.09629,-0.0892 0.202708,-0.18371 0.106422,-0.0945 0.222521,-0.1985 0.257997,-0.23109 0.311761,-0.28645 0.674842,-0.59378 0.801303,-0.67829 0.167141,-0.11168 0.315001,-0.0171 0.241573,0.15452 -0.04068,0.0951 -0.403198,0.54923 -0.712074,0.89203 -0.0461,0.0512 -0.107394,0.12207 -0.136184,0.15755 -0.0288,0.0355 -0.108119,0.12669 -0.176277,0.20271 -0.06817,0.076 -0.205405,0.22943 -0.304977,0.34093 -0.09958,0.11148 -0.260334,0.28988 -0.357242,0.39642 -0.0969,0.10653 -0.23838,0.2637 -0.314393,0.34923 -0.208795,0.23494 -0.471923,0.52349 -1.045724,1.14673 -0.286381,0.31106 -0.520688,0.57808 -0.520688,0.59338 0,0.0153 0.02932,0.0502 0.0651,0.0775 0.05445,0.0416 0.0722,0.0465 0.108172,0.0301 0.02364,-0.0108 0.319845,-0.2918 0.658177,-0.62446 0.921077,-0.90565 1.147758,-1.12591 1.886708,-1.83318 0.366318,-0.35062 0.99344,-0.92659 1.180582,-1.08429 0.10565,-0.089 0.233484,-0.16633 0.275065,-0.16633 0.02318,0 0.06131,0.0156 0.08476,0.0344 0.06789,0.055 0.05655,0.13859 -0.03781,0.279 -0.08554,0.12727 -0.296907,0.40192 -0.405229,0.52654 -0.03598,0.0413 -0.119305,0.14023 -0.185183,0.21964 -0.06589,0.0794 -0.201129,0.24046 -0.300551,0.35783 -0.09942,0.11738 -0.198928,0.235 -0.221135,0.26137 -0.0222,0.0264 -0.137007,0.15907 -0.255111,0.29487 -0.118103,0.13579 -0.308836,0.3552 -0.423851,0.48757 -0.311664,0.35871 -0.811247,0.92579 -1.314063,1.49159 -0.135832,0.15285 -0.383557,0.43451 -0.46147,0.5247 -0.03043,0.0352 -0.0926,0.10197 -0.138215,0.14833 -0.04564,0.0464 -0.142785,0.14742 -0.21595,0.2245 -0.351033,0.36984 -0.722895,0.53947 -1.230673,0.5614 -0.373501,0.0161 -0.672131,-0.0485 -1.026846,-0.22254 l -0.160709,-0.0789 -0.274295,0.28734 c -0.150864,0.15803 -0.605647,0.64808 -1.010633,1.08897 -0.404981,0.4409 -0.88094,0.95888 -1.057686,1.15106 -0.176747,0.19219 -0.362499,0.39429 -0.412771,0.44911 l -0.09141,0.0996 0.03918,0.0317 c 0.04773,0.0387 0.521576,0.47322 1.04577,0.9591 0.213313,0.19771 0.603458,0.55718 0.866978,0.79879 0.263527,0.24163 0.516456,0.47446 0.562067,0.51739 0.07555,0.0711 0.944885,0.87126 1.511124,1.39083 0.126696,0.11626 0.321576,0.29561 0.433071,0.39857 0.111489,0.10292 0.270567,0.24911 0.353494,0.32479 0.300342,0.2741 0.393338,0.42458 0.434651,0.70331 0.04048,0.27301 -0.05406,0.55644 -0.253725,0.76054 -0.290318,0.29683 -0.716593,0.36578 -1.094807,0.17709 -0.112358,-0.056 -0.210754,-0.1477 -0.527676,-0.49145 -0.121191,-0.13146 -0.282547,-0.30565 -0.358566,-0.38709 -0.07601,-0.0814 -0.366259,-0.39659 -0.644994,-0.70033 -0.278729,-0.30376 -0.663832,-0.7225 -0.855793,-0.93056 -0.191962,-0.20804 -0.440294,-0.47778 -0.551862,-0.59941 -0.111567,-0.12162 -0.246562,-0.26675 -0.299995,-0.32249 -0.05341,-0.0558 -0.111926,-0.11889 -0.129987,-0.14034 -0.01808,-0.0214 -0.116432,-0.12923 -0.218609,-0.23956 -0.546017,-0.58961 -0.9346017,-1.01 -1.0541147,-1.14041 l -0.1341857,-0.14641 -0.116249,0.11925 c -0.06393,0.0656 -0.2146,0.22708 -0.334799,0.35884 -0.1201923,0.13176 -0.3069042,0.33493 -0.4149056,0.45149 -0.1080014,0.11656 -0.3604153,0.39022 -0.5609167,0.60814 -0.2005025,0.21791 -0.4071689,0.44181 -0.4592563,0.49756 -0.05211,0.0558 -0.288914,0.31283 -0.5262769,0.57129 -0.3728216,0.40596 -0.6291989,0.68378 -0.9948178,1.07805 -0.047011,0.0507 -0.1421716,0.15434 -0.2115042,0.23036 -0.069345,0.076 -0.1689769,0.18382 -0.2214237,0.23957 -0.093524,0.0994 -0.5846724,0.63475 -0.8210686,0.89495 -0.1816631,0.19996 -0.3881991,0.32771 -0.6049726,0.3742 -0.1248681,0.0267 -0.3552245,0.0242 -0.473086,-0.005 z m 0.587349,-0.283 c 0.1357077,-0.0637 0.2349472,-0.15565 0.591784,-0.54806 0.1012089,-0.11129 0.2346588,-0.25624 0.2965735,-0.32212 0.061904,-0.0659 0.2686532,-0.28978 0.4594259,-0.49756 0.3159737,-0.34415 0.4491862,-0.48909 0.8299419,-0.90299 0.069928,-0.076 0.1605468,-0.17494 0.2013706,-0.21984 0.04081,-0.0449 0.1330567,-0.14441 0.2049417,-0.22113 0.071889,-0.0767 0.2453416,-0.26392 0.3854505,-0.41594 0.1401025,-0.15205 0.2969785,-0.32204 0.348609,-0.37779 0.051654,-0.0557 0.168429,-0.18351 0.2595509,-0.28392 0.091118,-0.10038 0.1863981,-0.20415 0.2117396,-0.23053 0.025334,-0.0264 0.1289947,-0.1388 0.2303563,-0.24981 0.1013574,-0.111 0.2047329,-0.22288 0.2297225,-0.2486 0.1714775,-0.1765 0.7193349,-0.78252 0.7193349,-0.79569 0,-0.0127 -0.4562786,-0.52131 -0.6736075,-0.75081 l -0.041531,-0.0439 -0.2459489,0.22673 c -0.13527,0.1247 -0.2791133,0.25777 -0.3196573,0.29571 -0.040545,0.0379 -0.193959,0.17922 -0.340924,0.31395 -0.1469703,0.13473 -0.2880914,0.26605 -0.3136025,0.29181 -0.025535,0.0258 -0.1870383,0.17538 -0.3589398,0.33248 -0.1719089,0.1571 -0.366645,0.3362 -0.432752,0.39799 -0.066102,0.0618 -0.2409404,0.22351 -0.3885128,0.35936 -0.1475776,0.13585 -0.4664049,0.42943 -0.7085081,0.65242 -0.2421033,0.22298 -0.4901808,0.45103 -0.5512729,0.50677 -0.2600788,0.2373 -0.3914182,0.35876 -0.4365192,0.40365 -0.026447,0.0263 -0.1216161,0.11419 -0.2115042,0.19528 -0.5097441,0.45981 -0.9129294,0.8444 -0.9645854,0.92012 -0.3090265,0.45293 -0.099248,1.0606 0.4314979,1.24993 0.070734,0.0252 0.1355764,0.0317 0.2766647,0.0274 0.1628183,-0.004 0.1990396,-0.0124 0.310926,-0.065 z m 10.6397577,-0.22946 c 0.205497,-0.10091 0.323966,-0.2387 0.383628,-0.44625 0.04186,-0.14563 0.02736,-0.32252 -0.03839,-0.46913 -0.05949,-0.13253 -0.136667,-0.20918 -1.077366,-1.06986 -0.136831,-0.12519 -0.290273,-0.26572 -0.340976,-0.31229 -0.396231,-0.36391 -0.5796,-0.53289 -0.887248,-0.81766 -0.194083,-0.17966 -0.362008,-0.32664 -0.373174,-0.32664 -0.01116,0 -0.02031,-0.007 -0.02031,-0.0171 0,-0.01 -0.01116,-0.0281 -0.02488,-0.0414 -0.0194,-0.019 -0.286969,-0.2653 -0.406816,-0.37449 -0.0111,-0.0106 -0.115407,-0.10547 -0.231734,-0.21192 -0.116327,-0.10643 -0.220587,-0.20179 -0.231688,-0.21193 -0.0654,-0.0597 -0.481764,-0.44532 -0.606873,-0.56207 -0.238924,-0.22295 -0.739023,-0.68284 -0.801571,-0.73713 -0.0175,-0.0152 -0.125847,-0.11471 -0.240733,-0.22114 -0.3028677,-0.28057 -0.7476534,-0.69142 -0.8649594,-0.79895 -0.09385,-0.0861 -0.151928,-0.13973 -0.4520675,-0.4179 -0.1184096,-0.10974 -0.3536366,-0.32696 -0.4877777,-0.45044 -0.045644,-0.042 -0.193711,-0.17834 -0.3291114,-0.30301 -0.1354003,-0.12466 -1.8757245,-1.85638 -3.8673846,-3.84824 -2.6889375,-2.6892 -3.62535344,-3.61502 -3.63731664,-3.59614 -0.083719,0.13219 0.15651777,0.78255 0.54715897,1.48128 0.46699427,0.83529 1.26232827,2.02019 1.81315697,2.70127 0.4041446,0.49971 0.7094759,0.85599 1.1042374,1.28847 0.1156409,0.12669 0.2234664,0.24371 0.2396081,0.26002 0.016133,0.0163 0.1495831,0.15684 0.2965481,0.31225 0.7560323,0.79948 2.1770395,2.19198 2.2368511,2.19198 0.011618,0 0.1452669,-0.12439 0.2970506,-0.27643 0.238936,-0.23933 0.2837497,-0.27641 0.3339959,-0.27641 0.061576,0 0.1149306,0.0528 0.7165472,0.70948 0.2126999,0.23215 0.273191,0.29764 0.5277588,0.57129 0.066006,0.0709 0.3097378,0.33631 0.5416287,0.5897 0.231897,0.25339 0.4681877,0.51046 0.5250887,0.57127 0.05694,0.0607 0.156766,0.16801 0.221919,0.23822 0.06517,0.0702 0.13883,0.14897 0.163733,0.17506 0.05165,0.0542 0.1696037,0.18203 0.4338617,0.47051 0.477794,0.52159 0.670069,0.73018 0.790686,0.85781 0.0719,0.0761 0.176342,0.18824 0.232087,0.24925 0.05577,0.061 0.193188,0.21023 0.305427,0.33161 0.11224,0.12135 0.303,0.32847 0.423911,0.46023 0.289397,0.31538 1.66789,1.81185 1.872819,2.0331 0.273224,0.29499 0.394167,0.35873 0.65966,0.34766 0.121779,-0.005 0.178092,-0.0171 0.25302,-0.0539 z m -4.600426,-6.23046 c 0.09536,-0.10462 0.310352,-0.3389 0.477755,-0.52061 0.167403,-0.18169 0.494594,-0.53768 0.727092,-0.79107 0.232504,-0.25339 0.46542,-0.50632 0.517599,-0.56206 0.05217,-0.0558 0.213411,-0.22989 0.358306,-0.387 0.144894,-0.1571 0.359527,-0.38308 0.476951,-0.50217 0.246361,-0.24986 0.258251,-0.25409 0.424949,-0.1512 0.259171,0.15997 0.555504,0.24825 0.876408,0.26109 0.361466,0.0144 0.613572,-0.0448 0.902069,-0.21233 0.102364,-0.0595 0.444244,-0.38312 0.618268,-0.58539 0.03546,-0.0412 0.160664,-0.18218 0.278199,-0.31322 0.207972,-0.23186 0.455736,-0.51124 0.652594,-0.73583 0.09944,-0.11344 0.231284,-0.26325 0.682305,-0.77525 0.142244,-0.16147 0.329883,-0.37651 0.416976,-0.47787 0.08709,-0.10134 0.294133,-0.34188 0.460085,-0.53451 0.470671,-0.54631 0.589492,-0.69235 0.503907,-0.61935 -0.206582,0.17623 -1.607601,1.5283 -2.53675,2.44812 -0.517115,0.51194 -0.616283,0.59325 -0.724526,0.59414 -0.14084,10e-4 -0.335517,-0.14211 -0.375793,-0.27654 -0.03715,-0.12404 -0.0124,-0.20695 0.09764,-0.32734 0.05289,-0.0578 0.327963,-0.35804 0.61134,-0.66717 0.627684,-0.68474 1.493586,-1.64076 1.69393,-1.87024 0.08109,-0.0929 0.234045,-0.26775 0.339912,-0.38862 0.105862,-0.12087 0.209526,-0.24008 0.230356,-0.26492 0.09499,-0.11329 -0.957761,0.85608 -1.979638,1.82284 -0.177152,0.1676 -0.40935,0.38703 -0.515993,0.48764 -0.106644,0.10059 -0.206979,0.19596 -0.222971,0.21191 -0.149361,0.1491 -0.563477,0.5314 -0.59465,0.54898 -0.0218,0.0123 -0.08115,0.0224 -0.131842,0.0224 -0.09781,0 -0.135282,-0.0155 -0.226705,-0.0935 -0.143347,-0.12232 -0.177818,-0.30924 -0.08283,-0.44918 0.02736,-0.0404 0.06354,-0.0859 0.08024,-0.10102 0.01672,-0.0153 0.13277,-0.13546 0.25784,-0.26723 0.125071,-0.13174 0.303052,-0.31834 0.395506,-0.41463 0.169212,-0.17621 1.047357,-1.10925 1.205428,-1.28077 0.04669,-0.0507 0.234072,-0.25384 0.416375,-0.45149 0.539278,-0.58467 0.676983,-0.73714 0.665779,-0.73714 -0.01287,0 -0.19759,0.16028 -0.618053,0.53627 -0.09521,0.0851 -0.248626,0.22077 -0.340924,0.30142 -0.0923,0.0807 -0.408304,0.36631 -0.70224,0.63484 -0.293929,0.26853 -0.571737,0.52109 -0.617348,0.56123 -0.04564,0.0402 -0.132683,0.11934 -0.193501,0.176 -0.06079,0.0567 -0.201789,0.18577 -0.313277,0.28694 -0.111495,0.10112 -0.252472,0.23249 -0.313284,0.29182 -0.171144,0.16697 -0.289391,0.21094 -0.42726,0.15885 -0.128936,-0.0488 -0.245374,-0.23071 -0.245374,-0.38352 0,-0.0807 0.0093,-0.10229 0.08177,-0.18951 0.04499,-0.0542 0.149256,-0.16478 0.231746,-0.24587 0.167716,-0.16486 1.366876,-1.38799 1.44537,-1.47426 0.02769,-0.0304 0.167749,-0.17588 0.311298,-0.32329 0.287112,-0.2948 0.801205,-0.83588 0.943958,-0.9935 0.115779,-0.12785 0.08336,-0.1024 -0.436578,0.34325 -0.548125,0.46976 -0.504742,0.43208 -1.248564,1.08395 -0.358632,0.31429 -0.72766,0.63682 -0.820062,0.71672 -0.09241,0.0799 -0.246791,0.21718 -0.343078,0.30504 -0.09629,0.0879 -0.282875,0.25426 -0.414639,0.36977 -0.577953,0.50665 -0.712224,0.65484 -0.838947,0.92591 -0.09285,0.1986 -0.134094,0.39934 -0.135387,0.6589 -0.0019,0.33396 0.04943,0.54119 0.213405,0.86613 0.109033,0.21604 0.12302,0.25485 0.106225,0.29486 -0.02645,0.0631 -0.22378,0.25454 -0.89328,0.86693 -0.314204,0.2874 -0.737135,0.67695 -0.939845,0.86566 -0.202714,0.18871 -0.588328,0.54502 -0.8569217,0.79179 -0.268596,0.24677 -0.4883527,0.45617 -0.4883527,0.46533 0,0.0172 0.6732284,0.6569 0.6927464,0.65831 0.0058,4.4e-4 0.08892,-0.0848 0.184288,-0.18944 z"
       id="path3732"
       inkscape:connector-curvature="0" />
  </g>
</svg>
